HIERARCHY
ROOT root
{
	OFFSET	0	13.1	24.9
	CHANNELS 6  Xposition Yposition Zposition Xrotation Yrotation Zrotation
	JOINT spine_1
	{
		OFFSET	0	9.99999	0
		CHANNELS 3  Xrotation Yrotation Zrotation
		JOINT spine_2
		{
			OFFSET	0	112	-10
			CHANNELS 3  Xrotation Yrotation Zrotation
			JOINT spine_3
			{
				OFFSET	0	206.5	19.3
				CHANNELS 3  Xrotation Yrotation Zrotation
				JOINT spine_4
				{
					OFFSET	0	110.4	14.6
					CHANNELS 3  Xrotation Yrotation Zrotation
					JOINT neck_1
					{
						OFFSET	0	71.8	-50.3
						CHANNELS 3  Xrotation Yrotation Zrotation
						JOINT neck_2
						{
							OFFSET	0	86.2	-25.8
							CHANNELS 3  Xrotation Yrotation Zrotation
							JOINT head_ee
							{
								OFFSET	0	179.8	-8.7
								CHANNELS 3  Xrotation Yrotation Zrotation
								End Site
								{
									OFFSET	1	0	0
								}
							}
						}
					}
					JOINT left_clavicle
					{
						OFFSET	-43.2	22.4	-70.8
						CHANNELS 3  Xrotation Yrotation Zrotation
						JOINT left_shoulder
						{
							OFFSET	-93.9	-5.79999	48.7
							CHANNELS 3  Xrotation Yrotation Zrotation
							JOINT left_elbow
							{
								OFFSET	-291.4	-30.8	15.2
								CHANNELS 3  Xrotation Yrotation Zrotation
								JOINT left_lowarm_twist
								{
									OFFSET	-110.7	-3.89999	13.6
									CHANNELS 3  Xrotation Yrotation Zrotation
									JOINT left_hand
									{
										OFFSET	-110.7	-3.89999	13.6
										CHANNELS 3  Xrotation Yrotation Zrotation
										JOINT left_ee
										{
											OFFSET	-80.8	-5.10001	12.1
											CHANNELS 3  Xrotation Yrotation Zrotation
											End Site
											{
												OFFSET	1	0	0
											}
										}
									}
								}
							}
						}
					}
					JOINT right_clavicle
					{
						OFFSET	43.2	22.4	-70.8
						CHANNELS 3  Xrotation Yrotation Zrotation
						JOINT right_shoulder
						{
							OFFSET	93.9	-5.79999	48.7
							CHANNELS 3  Xrotation Yrotation Zrotation
							JOINT right_elbow
							{
								OFFSET	291.4	-30.8	15.2
								CHANNELS 3  Xrotation Yrotation Zrotation
								JOINT right_lowarm_twist
								{
									OFFSET	110.7	-3.89999	13.6
									CHANNELS 3  Xrotation Yrotation Zrotation
									JOINT right_hand
									{
										OFFSET	110.7	-3.89999	13.6
										CHANNELS 3  Xrotation Yrotation Zrotation
										JOINT right_ee
										{
											OFFSET	80.8	-5.10001	12.1
											CHANNELS 3  Xrotation Yrotation Zrotation
											End Site
											{
												OFFSET	1	0	0
											}
										}
									}
								}
							}
						}
					}
				}
			}
		}
	}
	JOINT left_hip
	{
		OFFSET	-82.8	-127.5	0.300001
		CHANNELS 3  Xrotation Yrotation Zrotation
		JOINT left_knee
		{
			OFFSET	-28.2	-396.7	2.2
			CHANNELS 3  Xrotation Yrotation Zrotation
			JOINT left_ankle
			{
				OFFSET	-11.7	-411.3	35.4
				CHANNELS 3  Xrotation Yrotation Zrotation
				JOINT left_toes
				{
					OFFSET	0	-60	-88.6
					CHANNELS 3  Xrotation Yrotation Zrotation
					JOINT left_foot_ee
					{
						OFFSET	-22.5	-16.5	-42.2
						CHANNELS 3  Xrotation Yrotation Zrotation
						End Site
						{
							OFFSET	1	0	0
						}
					}
				}
			}
		}
	}
	JOINT right_hip
	{
		OFFSET	82.8	-127.5	0.300001
		CHANNELS 3  Xrotation Yrotation Zrotation
		JOINT right_knee
		{
			OFFSET	28.2	-396.7	2.2
			CHANNELS 3  Xrotation Yrotation Zrotation
			JOINT right_ankle
			{
				OFFSET	11.7	-411.3	35.4
				CHANNELS 3  Xrotation Yrotation Zrotation
				JOINT right_toes
				{
					OFFSET	0	-60	-88.6
					CHANNELS 3  Xrotation Yrotation Zrotation
					JOINT right_foot_ee
					{
						OFFSET	22.5	-16.5	-42.2
						CHANNELS 3  Xrotation Yrotation Zrotation
						End Site
						{
							OFFSET	1	0	0
						}
					}
				}
			}
		}
	}
}
MOTION
Frames: 14
Frame Time: 0.02
710.211 688.314 -1276.15 126.011 -80.6458 120.486 -3.27558 0.293073 1.58439 -3.2742 0.191673 1.59983 -3.26682 -0.240076 1.59328 -3.27036 0.0145329 1.6112 3.16531 -3.6736 1.20871 3.23366 -7.42667 1.09935 -0.0 0.0 -0.0 1.78446 21.4076 5.03864 25.0713 45.6485 52.6209 0.189345 -5.35856 0.00886059 26.0892 0.170579 -3.29965 2.68107 -7.50346 15.0853 -0.0 0.0 -0.0 4.66824 28.955 -6.82799 16.1639 -2.51802 -57.9943 1.10397 28.6723 -0.28215 75.7061 3.35296 8.34943 3.08229 15.9602 -13.976 0.0 0.0 0.0 20.4021 -26.6431 18.3705 -53.2842 -1.52007 7.74531 14.7956 17.4082 -2.0967 2.07086 -0.0 -0.0 -0.0 0.0 -0.0 -1.43129 -16.6775 8.60078 -14.8329 -0.321391 -2.24725 14.2393 2.52562 2.02392 31.9008 -0.0 -0.0 0.0 0.0 0.0 
723.238 691.362 -1269.78 126.56 -80.3175 120.843 -3.38389 0.315853 1.61892 -3.38245 0.212211 1.63573 -3.37421 -0.232865 1.63292 -3.37793 0.0279093 1.6492 1.51301 -3.24719 0.93734 1.55663 -6.50704 0.742559 -0.0 0.0 -0.0 2.25766 20.8375 5.69006 26.3528 46.6128 50.7658 0.195768 -5.53922 0.00947055 27.5971 0.134349 -3.48886 2.60082 -5.24834 15.4972 -0.0 0.0 -0.0 4.76464 29.2031 -7.01019 15.873 -3.39454 -57.2594 1.23218 31.398 -0.34634 76.4523 3.43593 8.39727 3.83451 18.7285 -17.7738 0.0 0.0 0.0 25.5738 -26.2267 20.1104 -52.1149 -1.4113 7.60169 2.76815 17.7135 -0.407772 -0.731828 0.0 0.0 -0.0 0.0 -0.0 -4.18786 -17.3768 7.76021 -10.5052 -0.287974 -1.58424 12.8008 4.06961 1.83977 31.8308 -0.0 -0.0 0.0 0.0 0.0 
737.383 690.411 -1265.48 128.951 -80.1785 122.703 -3.63276 0.323984 1.67457 -3.63123 0.216785 1.69179 -3.62239 -0.250763 1.68709 -3.62636 0.0187879 1.70552 -0.844984 -2.87076 1.69363 -0.803419 -6.5121 1.471 -0.0 0.0 -0.0 2.10002 22.3029 5.53591 27.2851 47.316 50.75 0.195586 -5.5341 0.00945296 28.4415 0.111889 -3.59438 2.55333 -0.280218 17.216 -0.0 0.0 -0.0 4.91504 28.613 -7.40146 16.8358 -5.64996 -56.9281 1.44386 35.5719 -0.463202 75.8663 3.37072 8.35979 4.74879 19.4098 -23.8354 0.0 0.0 0.0 29.0902 -24.9331 21.0866 -50.7345 -1.28674 7.42937 -7.74265 15.5331 1.15887 -3.75657 0.0 0.0 -0.0 0.0 -0.0 -5.5349 -14.6154 7.78902 -7.50829 -0.23554 -1.1274 11.1059 5.73907 1.61744 32.1284 -0.0 -0.0 0.0 0.0 0.0 
763.051 684.843 -1259.01 127.403 -80.5953 120.278 -3.08217 0.328227 1.91615 -3.08015 0.205655 1.93315 -3.0704 -0.308568 1.91942 -3.07554 -0.00161963 1.94405 -0.354484 -2.90335 1.46798 -0.31474 -6.38013 1.25334 -0.0 0.0 -0.0 1.93583 20.8737 5.22549 24.492 45.526 49.9982 0.195545 -5.53297 0.00944908 28.3326 0.114873 -3.58079 1.74197 5.55731 13.8809 -0.0 0.0 -0.0 4.64416 29.0961 -6.76028 16.0578 -4.30171 -56.4954 1.54499 37.4258 -0.523368 75.9745 3.38272 8.36676 5.66442 22.6552 -28.4583 0.0 0.0 0.0 31.6802 -24.038 22.0825 -51.2263 -1.33064 7.49111 -14.6068 10.4361 2.18975 -6.36212 0.0 0.0 -0.0 0.0 -0.0 -6.91239 -17.5047 8.64192 -5.55724 -0.188589 -0.831689 15.3801 8.4927 2.22844 33.2353 -0.0 -0.0 0.0 0.0 0.0 
786.419 680.777 -1251.07 131.0 -80.951 123.326 -2.64379 0.421383 2.17473 -2.6412 0.28218 2.19712 -2.62697 -0.286949 2.1965 -2.6337 0.0634605 2.21425 -0.312321 -2.84259 1.19397 -0.278649 -6.0479 0.9682 -0.0 0.0 -0.0 1.45574 20.8574 4.52976 23.3739 44.3552 51.0968 0.197484 -5.58749 0.00963699 29.6309 0.0776165 -3.74244 0.664191 11.9223 9.15843 -0.0 0.0 -0.0 5.33642 28.8508 -8.29163 15.4045 -3.94223 -55.4767 1.68363 39.8255 -0.609926 74.2119 3.18873 8.25042 6.43697 23.9893 -33.2591 0.0 0.0 0.0 34.2649 -23.7413 22.2488 -48.9212 -1.12952 7.19861 -20.7818 5.47487 3.12987 -9.55258 0.0 0.0 -0.0 0.0 -0.0 -7.47284 -17.3788 9.02966 -6.23672 -0.206083 -0.934497 19.8672 10.218 2.84313 34.4525 -0.0 -0.0 0.0 0.0 0.0 
803.889 675.616 -1245.12 138.656 -80.2558 130.597 -2.41209 0.590666 2.33451 -2.40916 0.440961 2.36734 -2.38698 -0.166609 2.40227 -2.39497 0.214764 2.39845 -0.71982 -2.74753 1.88756 -0.675549 -6.44666 1.6994 -0.0 0.0 -0.0 0.775603 19.5344 3.42796 20.4975 44.5063 52.1163 0.199284 -5.63809 0.00981304 31.852 0.0054093 -4.01693 0.0970083 21.4525 9.19567 -0.0 0.0 -0.0 6.27189 29.2 -10.29 14.6334 -3.09966 -53.6638 1.93196 43.7378 -0.775488 73.473 3.10849 8.19989 6.70865 24.9213 -34.6158 0.0 0.0 0.0 35.911 -25.8734 22.4615 -41.5561 -0.568725 6.21473 -22.2557 2.28042 3.36838 -14.95 0.0 0.0 -0.0 0.0 -0.0 -8.63506 -16.5565 9.14243 -5.59768 -0.189664 -0.837802 23.7436 13.4833 3.39275 34.616 -0.0 -0.0 0.0 0.0 0.0 
815.634 672.278 -1243.05 156.439 -80.2157 146.819 -2.15151 0.470662 2.70557 -2.14749 0.297611 2.73002 -2.1287 -0.384262 2.71918 -2.13901 0.0498365 2.74573 1.94947 -1.33964 1.92042 1.98003 -3.96919 2.00349 -0.0 0.0 -0.0 1.76765 19.0004 4.86456 24.7985 49.4396 47.8459 0.235756 -6.66135 0.0137202 31.5112 0.0171806 -3.97499 -1.55211 25.0317 1.14484 -0.0 0.0 -0.0 5.87651 28.8984 -9.462 16.533 -7.04299 -59.4613 2.37701 49.6528 -1.09979 69.6333 2.7024 7.92096 7.27769 25.6469 -38.4306 0.0 0.0 0.0 37.7074 -29.1882 22.0964 -27.6213 0.1278 4.19601 -23.1661 0.60647 3.51922 -29.1756 0.0 0.0 -0.0 0.0 -0.0 -7.85371 -13.5174 9.51589 -0.622474 -0.0251304 -0.0922197 20.5274 12.6493 2.96944 34.0899 -0.0 -0.0 0.0 0.0 0.0 
833.317 673.702 -1232.88 167.371 -79.276 157.697 -1.95015 0.739 2.87032 -1.94574 0.554936 2.91148 -1.91214 -0.168109 2.95908 -1.92423 0.301124 2.94853 3.45083 -0.752693 0.436868 3.45498 -1.68186 0.439753 -0.0 0.0 -0.0 1.92742 17.6591 5.02257 25.4767 50.1576 46.9362 0.263826 -7.44604 0.0171673 33.4006 -0.0512104 -4.20658 -2.50726 28.5667 -2.39543 -0.0 0.0 -0.0 5.71354 29.271 -9.06565 16.6038 -6.53973 -60.8482 2.25643 48.1764 -1.0089 68.0051 2.53604 7.79462 7.40129 25.3039 -39.7034 0.0 0.0 0.0 37.4274 -33.192 23.1086 -23.1865 0.244206 3.52555 -17.7101 1.19715 2.68283 -34.1734 0.0 0.0 -0.0 0.0 -0.0 -8.28328 -13.0216 9.67902 0.281161 0.0116797 0.0415654 24.5158 14.6517 3.51455 34.0647 -0.0 -0.0 0.0 0.0 0.0 
852.91 665.93 -1221.81 168.748 -77.3936 159.516 -2.12577 0.929338 3.01296 -2.12102 0.735825 3.06592 -2.07516 -0.038839 3.15266 -2.08873 0.459306 3.1193 3.88146 0.567215 1.13345 3.88488 0.00337344 1.31222 -0.0 0.0 -0.0 1.70793 17.3817 4.66676 25.5555 50.8612 46.0603 0.283707 -8.00014 0.0198391 35.3552 -0.129968 -4.44368 -2.88173 28.7707 -4.30482 -0.0 0.0 -0.0 5.22068 29.1617 -8.00569 16.4598 -6.30165 -60.5893 2.17511 47.1299 -0.948788 67.1108 2.44621 7.72324 7.51862 24.7834 -41.1038 0.0 0.0 0.0 40.4181 -36.0093 22.5715 -17.2343 0.31831 2.61566 -18.0647 1.58882 2.73465 -38.9645 0.0 0.0 -0.0 0.0 -0.0 -9.25973 -11.1353 9.11603 -4.32771 -0.153836 -0.6462 31.5176 16.6306 4.38251 34.7707 -0.0 -0.0 0.0 0.0 0.0 
870.73 661.465 -1221.13 173.611 -77.9296 163.769 -1.8979 0.647039 3.00082 -1.89301 0.454869 3.03586 -1.86333 -0.292927 3.05572 -1.8763 0.19311 3.06364 4.78202 0.439544 1.80995 4.79313 -0.823796 2.08577 -0.0 0.0 -0.0 2.1169 16.6166 5.25362 25.4267 51.4738 46.7098 0.265668 -7.49746 0.0174069 37.2316 -0.213154 -4.66868 -3.57788 28.1538 -8.44499 -0.0 0.0 -0.0 5.55765 29.5082 -8.6999 17.4153 -5.61388 -60.7151 2.11586 46.3406 -0.905644 63.8418 2.12763 7.45068 7.45303 24.7743 -40.5768 0.0 0.0 0.0 41.2674 -39.992 23.0486 -11.1536 0.296169 1.68338 -14.4078 1.27797 2.17696 -40.1969 0.0 0.0 -0.0 0.0 -0.0 -7.51745 -9.38311 10.3365 -7.02022 -0.22474 -1.05328 35.7345 17.1065 4.83762 34.175 -0.0 -0.0 0.0 0.0 0.0 
884.873 668.409 -1218.71 179.928 -77.8086 169.77 -1.76367 0.453432 3.0107 -1.75867 0.261025 3.03343 -1.73982 -0.474202 3.00751 -1.75244 0.00649971 3.04462 5.94997 0.47084 2.39829 5.97112 -1.31878 2.7935 -0.0 0.0 -0.0 2.20211 15.9586 5.34959 25.8676 51.8885 47.1293 0.253581 -7.15997 0.015865 39.4631 -0.321631 -4.9326 -4.08082 28.5144 -10.9903 -0.0 0.0 -0.0 5.55531 28.859 -8.76699 17.587 -5.62817 -60.9637 2.00582 44.8116 -0.827046 60.3668 1.80669 7.14166 7.57464 24.5014 -41.8124 0.0 0.0 0.0 42.498 -43.0306 22.6763 -5.33848 0.182697 0.798634 -10.4573 0.679418 1.57536 -39.6373 0.0 0.0 -0.0 0.0 -0.0 -6.37564 -8.73018 10.737 -10.5955 -0.289183 -1.59804 38.4601 17.8727 5.12721 33.8721 -0.0 -0.0 0.0 0.0 0.0 
906.308 656.195 -1214.07 -178.064 -77.5533 172.39 -1.50845 0.452355 3.01319 -1.50343 0.259791 3.03584 -1.48498 -0.462578 3.01164 -1.49763 0.01863 3.04687 5.50077 0.114989 1.99457 5.51787 -1.55761 2.29923 -0.0 0.0 -0.0 2.67107 15.3486 6.06416 26.3769 51.863 47.5999 0.256305 -7.23607 0.0162064 39.4779 -0.322383 -4.93433 -3.82816 26.9966 -10.5438 -0.0 0.0 -0.0 5.52907 28.5138 -8.74778 17.4617 -6.21395 -61.858 2.00556 44.8079 -0.826862 60.4263 1.81202 7.14711 7.59674 24.6804 -41.8369 0.0 0.0 0.0 44.2782 -43.0959 21.7857 -5.31637 0.182095 0.795294 -10.2539 0.678246 1.5443 -39.384 0.0 0.0 -0.0 0.0 -0.0 -6.70245 -8.86204 11.4609 -10.4995 -0.287898 -1.58337 38.2532 17.9254 5.10994 33.8516 -0.0 -0.0 0.0 0.0 0.0 
922.361 646.534 -1214.75 -171.847 -78.2493 178.354 -1.07905 0.43803 2.95594 -1.07422 0.249133 2.9778 -1.05733 -0.437191 2.95607 -1.06952 0.0349347 2.98799 5.81865 -0.566612 2.05283 5.84625 -2.77586 2.34709 -0.0 0.0 -0.0 2.89305 14.8599 6.39947 26.6126 51.7401 48.3878 0.260865 -7.36341 0.0167858 38.2376 -0.260785 -4.78818 -3.12346 23.5936 -8.53611 -0.0 0.0 -0.0 5.65004 28.5046 -9.01217 17.7828 -8.9922 -61.4131 1.97621 44.3858 -0.806256 59.5994 1.7384 7.07086 7.29249 24.1094 -39.8405 0.0 0.0 0.0 44.449 -43.5578 20.8436 -3.61538 0.131881 0.539083 -8.23547 0.912684 1.23597 -39.4795 0.0 0.0 -0.0 0.0 -0.0 -4.61853 -9.04033 13.7057 -9.94741 -0.280027 -1.49902 36.7215 15.9626 4.89527 33.2996 -0.0 -0.0 0.0 0.0 0.0 
939.176 650.407 -1218.54 -169.161 -76.0782 -179.185 -1.24674 0.842743 2.98618 -1.24202 0.651107 3.03369 -1.2026 -0.0659043 3.10201 -1.21577 0.424592 3.07355 4.87406 0.307073 2.54378 4.89936 -1.69428 2.91871 -0.0 0.0 -0.0 3.12181 15.143 6.77904 26.6098 51.3506 50.0396 0.261977 -7.39445 0.0169285 37.7964 -0.239636 -4.73587 -2.59465 22.2853 -6.17229 -0.0 0.0 -0.0 5.00474 28.8676 -7.56863 17.4693 -10.2924 -62.1281 1.85639 42.5975 -0.723784 59.8176 1.75772 7.09108 7.08546 23.7339 -38.4849 0.0 0.0 0.0 45.6548 -43.3625 20.5284 -2.19038 0.0839696 0.325642 -14.5019 1.80608 2.18882 -40.1548 0.0 0.0 -0.0 0.0 -0.0 -4.69566 -10.4198 13.0707 -9.98918 -0.28065 -1.50539 36.9368 15.2464 4.89268 32.966 -0.0 -0.0 0.0 0.0 0.0 
